<?xml version="1.0" encoding="UTF-8"?>
<svg xmlns="http://www.w3.org/2000/svg" xmlns:xlink="http://www.w3.org/1999/xlink" width="375pt" height="374.999991pt" viewBox="0 0 375 374.999991" version="1.2">
<defs>
<clipPath id="clip1">
  <path d="M 98.070312 53.34375 L 276.21875 53.34375 L 276.21875 301.433594 L 98.070312 301.433594 Z M 98.070312 53.34375 "/>
</clipPath>
</defs>
<g id="surface1">
<path style=" stroke:none;fill-rule:nonzero;fill:rgb(0%,0%,0%);fill-opacity:1;" d="M 187.5 37.5 C 185.207031 37.5 182.917969 37.554688 180.628906 37.667969 C 178.339844 37.78125 176.054688 37.949219 173.773438 38.175781 C 171.492188 38.398438 169.21875 38.679688 166.949219 39.015625 C 164.683594 39.351562 162.425781 39.742188 160.175781 40.191406 C 157.929688 40.636719 155.691406 41.140625 153.46875 41.695312 C 151.246094 42.253906 149.039062 42.867188 146.84375 43.53125 C 144.652344 44.195312 142.476562 44.914062 140.316406 45.6875 C 138.160156 46.460938 136.019531 47.285156 133.902344 48.160156 C 131.785156 49.039062 129.691406 49.964844 127.617188 50.945312 C 125.546875 51.925781 123.5 52.957031 121.480469 54.039062 C 119.457031 55.117188 117.464844 56.246094 115.496094 57.425781 C 113.53125 58.605469 111.59375 59.828125 109.691406 61.101562 C 107.785156 62.375 105.910156 63.695312 104.070312 65.0625 C 102.230469 66.425781 100.421875 67.835938 98.648438 69.289062 C 96.878906 70.746094 95.144531 72.242188 93.445312 73.78125 C 91.746094 75.320312 90.085938 76.898438 88.464844 78.519531 C 86.847656 80.140625 85.265625 81.800781 83.726562 83.5 C 82.1875 85.199219 80.691406 86.933594 79.238281 88.703125 C 77.78125 90.476562 76.371094 92.28125 75.007812 94.125 C 73.640625 95.964844 72.324219 97.839844 71.050781 99.746094 C 69.777344 101.648438 68.550781 103.585938 67.371094 105.550781 C 66.191406 107.519531 65.0625 109.511719 63.984375 111.535156 C 62.902344 113.554688 61.871094 115.601562 60.890625 117.671875 C 59.914062 119.746094 58.984375 121.839844 58.105469 123.957031 C 57.230469 126.074219 56.40625 128.214844 55.632812 130.371094 C 54.859375 132.53125 54.140625 134.707031 53.476562 136.898438 C 52.8125 139.09375 52.199219 141.300781 51.644531 143.523438 C 51.085938 145.746094 50.582031 147.984375 50.136719 150.230469 C 49.6875 152.480469 49.296875 154.738281 48.960938 157.003906 C 48.625 159.273438 48.34375 161.546875 48.121094 163.828125 C 47.894531 166.109375 47.726562 168.394531 47.613281 170.683594 C 47.5 172.972656 47.445312 175.261719 47.445312 177.554688 C 47.445312 179.847656 47.5 182.136719 47.613281 184.425781 C 47.726562 186.714844 47.894531 189 48.121094 191.28125 C 48.34375 193.5625 48.625 195.835938 48.960938 198.105469 C 49.296875 200.371094 49.6875 202.628906 50.136719 204.878906 C 50.582031 207.125 51.085938 209.363281 51.644531 211.585938 C 52.199219 213.808594 52.8125 216.015625 53.476562 218.210938 C 54.140625 220.402344 54.859375 222.578125 55.632812 224.738281 C 56.40625 226.894531 57.230469 229.035156 58.105469 231.152344 C 58.984375 233.269531 59.914062 235.363281 60.890625 237.433594 C 61.871094 239.507812 62.902344 241.554688 63.984375 243.574219 C 65.0625 245.597656 66.191406 247.589844 67.371094 249.558594 C 68.550781 251.523438 69.777344 253.457031 71.050781 255.363281 C 72.324219 257.269531 73.640625 259.144531 75.007812 260.984375 C 76.371094 262.824219 77.78125 264.632812 79.238281 266.402344 C 80.691406 268.175781 82.1875 269.910156 83.726562 271.609375 C 85.265625 273.308594 86.847656 274.96875 88.464844 276.589844 C 90.085938 278.207031 91.746094 279.789062 93.445312 281.328125 C 95.144531 282.867188 96.878906 284.363281 98.648438 285.816406 C 100.421875 287.273438 102.230469 288.683594 104.070312 290.046875 C 105.910156 291.414062 107.785156 292.730469 109.691406 294.003906 C 111.59375 295.277344 113.53125 296.503906 115.496094 297.683594 C 117.464844 298.863281 119.457031 299.992188 121.480469 301.070312 C 123.5 302.152344 125.546875 303.183594 127.617188 304.164062 C 129.691406 305.140625 131.785156 306.070312 133.902344 306.949219 C 136.019531 307.824219 138.160156 308.648438 140.316406 309.421875 C 142.476562 310.195312 144.652344 310.914062 146.84375 311.578125 C 149.039062 312.242188 151.246094 312.855469 153.46875 313.410156 C 155.691406 313.96875 157.929688 314.46875 160.175781 314.917969 C 162.425781 315.363281 164.683594 315.757812 166.949219 316.09375 C 169.21875 316.429688 171.492188 316.710938 173.773438 316.933594 C 176.054688 317.160156 178.339844 317.328125 180.628906 317.441406 C 182.917969 317.550781 185.207031 317.609375 187.5 317.609375 C 189.792969 317.609375 192.082031 317.550781 194.371094 317.441406 C 196.660156 317.328125 198.945312 317.160156 201.226562 316.933594 C 203.507812 316.710938 205.78125 316.429688 208.050781 316.09375 C 210.316406 315.757812 212.574219 315.363281 214.824219 314.917969 C 217.070312 314.46875 219.308594 313.96875 221.53125 313.410156 C 223.753906 312.855469 225.960938 312.242188 228.15625 311.578125 C 230.347656 310.914062 232.523438 310.195312 234.683594 309.421875 C 236.839844 308.648438 238.980469 307.824219 241.097656 306.949219 C 243.214844 306.070312 245.308594 305.140625 247.382812 304.164062 C 249.453125 303.183594 251.5 302.152344 253.519531 301.070312 C 255.542969 299.992188 257.535156 298.863281 259.503906 297.683594 C 261.46875 296.503906 263.402344 295.277344 265.308594 294.003906 C 267.214844 292.730469 269.089844 291.414062 270.929688 290.046875 C 272.769531 288.683594 274.578125 287.273438 276.347656 285.816406 C 278.121094 284.363281 279.855469 282.867188 281.554688 281.328125 C 283.253906 279.789062 284.914062 278.207031 286.535156 276.589844 C 288.152344 274.96875 289.734375 273.308594 291.273438 271.609375 C 292.8125 269.910156 294.308594 268.175781 295.761719 266.402344 C 297.21875 264.632812 298.628906 262.824219 299.992188 260.984375 C 301.359375 259.144531 302.675781 257.269531 303.949219 255.363281 C 305.222656 253.457031 306.449219 251.523438 307.628906 249.558594 C 308.808594 247.589844 309.9375 245.597656 311.015625 243.574219 C 312.097656 241.554688 313.128906 239.507812 314.109375 237.433594 C 315.085938 235.363281 316.015625 233.269531 316.894531 231.152344 C 317.769531 229.035156 318.59375 226.894531 319.367188 224.738281 C 320.140625 222.578125 320.859375 220.402344 321.523438 218.210938 C 322.1875 216.015625 322.800781 213.808594 323.355469 211.585938 C 323.914062 209.363281 324.417969 207.125 324.863281 204.878906 C 325.308594 202.628906 325.703125 200.371094 326.039062 198.105469 C 326.375 195.835938 326.65625 193.5625 326.878906 191.28125 C 327.105469 189 327.273438 186.714844 327.386719 184.425781 C 327.5 182.136719 327.554688 179.847656 327.554688 177.554688 C 327.554688 175.261719 327.5 172.972656 327.386719 170.683594 C 327.273438 168.394531 327.105469 166.109375 326.878906 163.828125 C 326.65625 161.546875 326.375 159.273438 326.039062 157.003906 C 325.703125 154.738281 325.308594 152.480469 324.863281 150.230469 C 324.417969 147.984375 323.914062 145.746094 323.355469 143.523438 C 322.800781 141.300781 322.1875 139.09375 321.523438 136.898438 C 320.859375 134.707031 320.140625 132.53125 319.367188 130.371094 C 318.59375 128.214844 317.769531 126.074219 316.894531 123.957031 C 316.015625 121.839844 315.085938 119.746094 314.109375 117.671875 C 313.128906 115.601562 312.097656 113.554688 311.015625 111.535156 C 309.9375 109.511719 308.808594 107.519531 307.628906 105.550781 C 306.449219 103.585938 305.222656 101.648438 303.949219 99.746094 C 302.675781 97.839844 301.359375 95.964844 299.992188 94.125 C 298.628906 92.28125 297.21875 90.476562 295.761719 88.703125 C 294.308594 86.933594 292.8125 85.199219 291.273438 83.5 C 289.734375 81.800781 288.152344 80.140625 286.535156 78.519531 C 284.914062 76.898438 283.253906 75.320312 281.554688 73.78125 C 279.855469 72.242188 278.121094 70.746094 276.347656 69.289062 C 274.578125 67.835938 272.769531 66.425781 270.929688 65.0625 C 269.089844 63.695312 267.214844 62.375 265.308594 61.101562 C 263.402344 59.828125 261.46875 58.605469 259.503906 57.425781 C 257.535156 56.246094 255.542969 55.117188 253.519531 54.039062 C 251.5 52.957031 249.453125 51.925781 247.382812 50.945312 C 245.308594 49.964844 243.214844 49.039062 241.097656 48.160156 C 238.980469 47.285156 236.839844 46.460938 234.683594 45.6875 C 232.523438 44.914062 230.347656 44.195312 228.15625 43.53125 C 225.960938 42.867188 223.753906 42.253906 221.53125 41.695312 C 219.308594 41.140625 217.070312 40.636719 214.824219 40.191406 C 212.574219 39.742188 210.316406 39.351562 208.050781 39.015625 C 205.78125 38.679688 203.507812 38.398438 201.226562 38.175781 C 198.945312 37.949219 196.660156 37.78125 194.371094 37.667969 C 192.082031 37.554688 189.792969 37.5 187.5 37.5 Z M 187.5 37.5 "/>
<path style=" stroke:none;fill-rule:nonzero;fill:rgb(69.40918%,11.369324%,11.759949%);fill-opacity:1;" d="M 187.144531 57.839844 L 272.167969 143.085938 L 187.144531 228.335938 L 102.117188 143.085938 L 187.144531 57.839844 "/>
<path style=" stroke:none;fill-rule:nonzero;fill:rgb(0%,65.489197%,90.589905%);fill-opacity:1;" d="M 187.144531 297.34375 L 187.144531 228.335938 L 272.167969 143.085938 L 272.167969 212.097656 L 187.144531 297.34375 "/>
<path style=" stroke:none;fill-rule:nonzero;fill:rgb(88.62915%,14.118958%,14.509583%);fill-opacity:1;" d="M 187.144531 57.839844 L 211.4375 82.195312 L 187.144531 106.550781 L 162.851562 82.195312 L 187.144531 57.839844 "/>
<path style=" stroke:none;fill-rule:nonzero;fill:rgb(88.62915%,14.118958%,14.509583%);fill-opacity:1;" d="M 187.144531 114.671875 L 211.4375 139.027344 L 187.144531 163.382812 L 162.851562 139.027344 L 187.144531 114.671875 "/>
<path style=" stroke:none;fill-rule:nonzero;fill:rgb(88.62915%,14.118958%,14.509583%);fill-opacity:1;" d="M 130.460938 114.671875 L 154.753906 139.027344 L 130.460938 163.382812 L 106.167969 139.027344 L 130.460938 114.671875 "/>
<path style=" stroke:none;fill-rule:nonzero;fill:rgb(88.62915%,14.118958%,14.509583%);fill-opacity:1;" d="M 158.800781 143.085938 L 183.09375 167.441406 L 158.800781 191.800781 L 134.507812 167.441406 L 158.800781 143.085938 "/>
<path style=" stroke:none;fill-rule:nonzero;fill:rgb(88.62915%,14.118958%,14.509583%);fill-opacity:1;" d="M 187.144531 171.503906 L 211.4375 195.859375 L 187.144531 220.214844 L 162.851562 195.859375 L 187.144531 171.503906 "/>
<path style=" stroke:none;fill-rule:nonzero;fill:rgb(88.62915%,14.118958%,14.509583%);fill-opacity:1;" d="M 158.800781 86.253906 L 183.09375 110.609375 L 158.800781 134.96875 L 134.507812 110.609375 L 158.800781 86.253906 "/>
<path style=" stroke:none;fill-rule:nonzero;fill:rgb(88.62915%,14.118958%,14.509583%);fill-opacity:1;" d="M 215.484375 86.253906 L 239.777344 110.609375 L 215.484375 134.96875 L 191.191406 110.609375 L 215.484375 86.253906 "/>
<path style=" stroke:none;fill-rule:nonzero;fill:rgb(88.62915%,14.118958%,14.509583%);fill-opacity:1;" d="M 215.484375 143.085938 L 239.777344 167.441406 L 215.484375 191.800781 L 191.191406 167.441406 L 215.484375 143.085938 "/>
<path style=" stroke:none;fill-rule:nonzero;fill:rgb(88.62915%,14.118958%,14.509583%);fill-opacity:1;" d="M 243.828125 114.671875 L 268.121094 139.027344 L 243.828125 163.382812 L 219.535156 139.027344 L 243.828125 114.671875 "/>
<path style=" stroke:none;fill-rule:nonzero;fill:rgb(16.079712%,75.289917%,93.728638%);fill-opacity:1;" d="M 191.191406 224.273438 L 191.191406 244.574219 L 215.484375 220.214844 L 215.484375 199.917969 L 191.191406 224.273438 "/>
<path style=" stroke:none;fill-rule:nonzero;fill:rgb(16.079712%,75.289917%,93.728638%);fill-opacity:1;" d="M 219.535156 195.859375 L 219.535156 216.15625 L 243.828125 191.800781 L 243.828125 171.503906 L 219.535156 195.859375 "/>
<path style=" stroke:none;fill-rule:nonzero;fill:rgb(16.079712%,75.289917%,93.728638%);fill-opacity:1;" d="M 247.875 167.441406 L 247.875 187.738281 L 272.167969 163.382812 L 272.167969 143.085938 L 247.875 167.441406 "/>
<path style=" stroke:none;fill-rule:nonzero;fill:rgb(16.079712%,75.289917%,93.728638%);fill-opacity:1;" d="M 191.191406 248.632812 L 191.191406 268.929688 L 215.484375 244.574219 L 215.484375 224.273438 L 191.191406 248.632812 "/>
<path style=" stroke:none;fill-rule:nonzero;fill:rgb(16.079712%,75.289917%,93.728638%);fill-opacity:1;" d="M 219.535156 220.214844 L 219.535156 240.511719 L 243.828125 216.15625 L 243.828125 195.859375 L 219.535156 220.214844 "/>
<path style=" stroke:none;fill-rule:nonzero;fill:rgb(16.079712%,75.289917%,93.728638%);fill-opacity:1;" d="M 247.875 191.800781 L 247.875 212.097656 L 272.167969 187.738281 L 272.167969 167.441406 L 247.875 191.800781 "/>
<path style=" stroke:none;fill-rule:nonzero;fill:rgb(16.079712%,75.289917%,93.728638%);fill-opacity:1;" d="M 191.191406 272.988281 L 191.191406 293.285156 L 215.484375 268.929688 L 215.484375 248.632812 L 191.191406 272.988281 "/>
<path style=" stroke:none;fill-rule:nonzero;fill:rgb(16.079712%,75.289917%,93.728638%);fill-opacity:1;" d="M 219.535156 244.574219 L 219.535156 264.871094 L 243.828125 240.511719 L 243.828125 220.214844 L 219.535156 244.574219 "/>
<path style=" stroke:none;fill-rule:nonzero;fill:rgb(16.079712%,75.289917%,93.728638%);fill-opacity:1;" d="M 247.875 216.15625 L 247.875 236.453125 L 272.167969 212.097656 L 272.167969 191.800781 L 247.875 216.15625 "/>
<path style=" stroke:none;fill-rule:nonzero;fill:rgb(98.81897%,76.078796%,0%);fill-opacity:1;" d="M 187.144531 297.34375 L 187.144531 228.335938 L 102.117188 143.085938 L 102.117188 212.097656 L 187.144531 297.34375 "/>
<path style=" stroke:none;fill-rule:nonzero;fill:rgb(97.24884%,94.509888%,8.628845%);fill-opacity:1;" d="M 183.09375 224.273438 L 183.09375 244.574219 L 158.800781 220.214844 L 158.800781 199.917969 L 183.09375 224.273438 "/>
<path style=" stroke:none;fill-rule:nonzero;fill:rgb(97.24884%,94.509888%,8.628845%);fill-opacity:1;" d="M 154.753906 195.859375 L 154.753906 216.15625 L 130.460938 191.800781 L 130.460938 171.503906 L 154.753906 195.859375 "/>
<path style=" stroke:none;fill-rule:nonzero;fill:rgb(97.24884%,94.509888%,8.628845%);fill-opacity:1;" d="M 126.410156 167.441406 L 126.410156 187.738281 L 102.117188 163.382812 L 102.117188 143.085938 L 126.410156 167.441406 "/>
<path style=" stroke:none;fill-rule:nonzero;fill:rgb(97.24884%,94.509888%,8.628845%);fill-opacity:1;" d="M 183.09375 248.632812 L 183.09375 268.929688 L 158.800781 244.574219 L 158.800781 224.273438 L 183.09375 248.632812 "/>
<path style=" stroke:none;fill-rule:nonzero;fill:rgb(97.24884%,94.509888%,8.628845%);fill-opacity:1;" d="M 154.753906 220.214844 L 154.753906 240.511719 L 130.460938 216.15625 L 130.460938 195.859375 L 154.753906 220.214844 "/>
<path style=" stroke:none;fill-rule:nonzero;fill:rgb(97.24884%,94.509888%,8.628845%);fill-opacity:1;" d="M 126.410156 191.800781 L 126.410156 212.097656 L 102.117188 187.738281 L 102.117188 167.441406 L 126.410156 191.800781 "/>
<path style=" stroke:none;fill-rule:nonzero;fill:rgb(97.24884%,94.509888%,8.628845%);fill-opacity:1;" d="M 183.09375 272.988281 L 183.09375 293.285156 L 158.800781 268.929688 L 158.800781 248.632812 L 183.09375 272.988281 "/>
<path style=" stroke:none;fill-rule:nonzero;fill:rgb(97.24884%,94.509888%,8.628845%);fill-opacity:1;" d="M 154.753906 244.574219 L 154.753906 264.871094 L 130.460938 240.511719 L 130.460938 220.214844 L 154.753906 244.574219 "/>
<path style=" stroke:none;fill-rule:nonzero;fill:rgb(97.24884%,94.509888%,8.628845%);fill-opacity:1;" d="M 126.410156 216.15625 L 126.410156 236.453125 L 102.117188 212.097656 L 102.117188 191.800781 L 126.410156 216.15625 "/>
<g clip-path="url(#clip1)" clip-rule="nonzero">
<path style=" stroke:none;fill-rule:nonzero;fill:rgb(0%,0%,0%);fill-opacity:1;" d="M 247.875 230.714844 L 247.875 221.894531 L 268.121094 201.597656 L 268.121094 210.417969 Z M 106.167969 201.597656 L 126.410156 221.894531 L 126.410156 230.714844 L 106.167969 210.417969 Z M 130.460938 120.410156 L 153.078125 143.085938 L 130.460938 165.761719 L 107.84375 143.085938 Z M 187.144531 63.578125 L 209.761719 86.253906 L 187.144531 108.929688 L 164.527344 86.253906 Z M 243.828125 165.761719 L 221.210938 143.085938 L 243.828125 120.410156 L 266.445312 143.085938 Z M 268.121094 165.761719 L 247.875 186.0625 L 247.875 173.183594 L 268.121094 152.886719 Z M 219.535156 238.832031 L 219.535156 225.953125 L 239.777344 205.65625 L 239.777344 218.535156 Z M 219.535156 250.3125 L 239.777344 230.015625 L 239.777344 238.832031 L 219.535156 259.128906 Z M 191.191406 278.726562 L 211.4375 258.429688 L 211.4375 267.25 L 191.191406 287.546875 Z M 162.851562 258.429688 L 183.09375 278.726562 L 183.09375 287.546875 L 162.851562 267.25 Z M 154.753906 250.3125 L 154.753906 259.128906 L 134.507812 238.832031 L 134.507812 230.015625 Z M 134.507812 205.65625 L 154.753906 225.953125 L 154.753906 238.832031 L 134.507812 218.535156 Z M 106.167969 177.242188 L 126.410156 197.539062 L 126.410156 210.417969 L 106.167969 190.121094 Z M 126.410156 186.0625 L 106.167969 165.761719 L 106.167969 152.886719 L 126.410156 173.183594 Z M 181.421875 171.503906 L 158.800781 194.179688 L 136.183594 171.503906 L 158.800781 148.824219 Z M 215.484375 194.179688 L 192.867188 171.503906 L 215.484375 148.824219 L 238.105469 171.503906 Z M 219.535156 201.597656 L 239.777344 181.300781 L 239.777344 194.179688 L 219.535156 214.476562 Z M 191.191406 242.894531 L 191.191406 230.015625 L 211.4375 209.71875 L 211.4375 222.59375 Z M 191.191406 254.371094 L 211.4375 234.074219 L 211.4375 246.953125 L 191.191406 267.25 Z M 183.09375 254.371094 L 183.09375 267.25 L 162.851562 246.953125 L 162.851562 234.074219 Z M 154.753906 214.476562 L 134.507812 194.179688 L 134.507812 181.300781 L 154.753906 201.597656 Z M 162.851562 209.71875 L 183.09375 230.015625 L 183.09375 242.894531 L 162.851562 222.59375 Z M 187.144531 222.59375 L 164.527344 199.917969 L 187.144531 177.242188 L 209.761719 199.917969 Z M 192.867188 114.671875 L 215.484375 91.996094 L 238.105469 114.671875 L 215.484375 137.347656 Z M 158.800781 137.347656 L 136.183594 114.671875 L 158.800781 91.996094 L 181.421875 114.671875 Z M 187.144531 120.410156 L 209.761719 143.085938 L 187.144531 165.761719 L 164.527344 143.085938 Z M 268.121094 190.121094 L 247.875 210.417969 L 247.875 197.539062 L 268.121094 177.242188 Z M 275.035156 140.214844 L 190.007812 54.964844 C 188.425781 53.382812 185.863281 53.382812 184.28125 54.96875 L 99.253906 140.214844 C 98.464844 141.011719 98.070312 142.054688 98.070312 143.089844 L 98.070312 212.097656 C 98.070312 213.175781 98.496094 214.210938 99.257812 214.972656 L 184.28125 300.21875 C 185.078125 301.011719 186.109375 301.40625 187.144531 301.40625 C 188.183594 301.40625 189.214844 301.011719 190.011719 300.21875 L 275.035156 214.972656 C 275.796875 214.210938 276.222656 213.175781 276.222656 212.097656 L 276.222656 143.089844 C 276.222656 142.054688 275.824219 141.011719 275.035156 140.214844 "/>
</g>
</g>
</svg>
